<svg width="25" height="25" viewBox="0 0 25 25" fill="none" xmlns="http://www.w3.org/2000/svg">
<g id="Frame">
<path id="Vector" d="M0.290039 12.6001C0.290039 5.97268 5.66262 0.600098 12.29 0.600098C18.9175 0.600098 24.29 5.97268 24.29 12.6001C24.29 19.2275 18.9175 24.6001 12.29 24.6001C5.66262 24.6001 0.290039 19.2275 0.290039 12.6001Z" fill="#1B2022"/>
<path id="Vector_2" fill-rule="evenodd" clip-rule="evenodd" d="M15.451 13.5827C13.159 13.5827 11.3015 11.7257 11.3015 9.43688C11.3015 8.23853 10.3349 7.26685 9.12916 7.26685C7.93434 7.26685 6.95673 8.23853 6.95673 9.43688C6.95673 10.6353 7.92346 11.6069 9.12916 11.6069H9.14004C11.4211 11.6069 13.2677 13.4639 13.2785 15.7527V15.7635C13.2785 16.9619 14.2452 17.9335 15.451 17.9335C16.6567 17.9335 17.6234 16.9619 17.6234 15.7635C17.6125 14.5543 16.6458 13.5827 15.451 13.5827Z" fill="#46D5CF"/>
<path id="Vector_3" fill-rule="evenodd" clip-rule="evenodd" d="M9.13996 13.5826C7.94514 13.5826 6.96753 14.5543 6.96753 15.7527C6.96753 16.951 7.93426 17.9227 9.13996 17.9227C10.3457 17.9227 11.3124 16.951 11.3124 15.7527C11.3015 14.5543 10.3348 13.5826 9.13996 13.5826Z" fill="#46D5CF"/>
<path id="Vector_4" fill-rule="evenodd" clip-rule="evenodd" d="M15.4509 7.26685C16.6507 7.26685 17.6233 8.23838 17.6233 9.43688C17.6233 10.6354 16.6507 11.6069 15.4509 11.6069C14.2511 11.6069 13.2784 10.6354 13.2784 9.43688C13.2784 8.23838 14.2511 7.26685 15.4509 7.26685Z" fill="#46D5CF"/>
</g>
</svg>
