<svg width="25" height="25" viewBox="0 0 25 25" fill="none" xmlns="http://www.w3.org/2000/svg">
<g id="icon_spa_select.f7008e65.svg" clip-path="url(#clip0_615_421)">
<path id="Vector" d="M0.130005 12.6C0.130005 5.97259 5.50258 0.600006 12.13 0.600006C18.7575 0.600006 24.13 5.97259 24.13 12.6C24.13 19.2275 18.7575 24.6 12.13 24.6C5.50258 24.6 0.130005 19.2275 0.130005 12.6Z" fill="url(#paint0_linear_615_421)"/>
<path id="Vector_2" fill-rule="evenodd" clip-rule="evenodd" d="M15.2908 13.5825C12.9989 13.5825 11.1415 11.7256 11.1415 9.43673C11.1415 8.23838 10.1748 7.26669 8.96909 7.26669C7.77419 7.26669 6.79663 8.23838 6.79663 9.43673C6.79663 10.6352 7.76331 11.6068 8.96909 11.6068H8.97989C11.2609 11.6068 13.1076 13.4637 13.1184 15.7526V15.7634C13.1184 16.9617 14.0851 17.9333 15.2908 17.9333C16.4966 17.9333 17.4633 16.9617 17.4633 15.7634C17.4524 14.5541 16.4857 13.5825 15.2908 13.5825Z" fill="url(#paint1_linear_615_421)"/>
<path id="Vector_3" fill-rule="evenodd" clip-rule="evenodd" d="M8.97996 13.5826C7.78506 13.5826 6.8075 14.5542 6.8075 15.7526C6.8075 16.951 7.77418 17.9226 8.97996 17.9226C10.1857 17.9226 11.1524 16.951 11.1524 15.7526C11.1415 14.5542 10.1748 13.5826 8.97996 13.5826Z" fill="url(#paint2_linear_615_421)"/>
<path id="Vector_4" fill-rule="evenodd" clip-rule="evenodd" d="M15.2909 7.26669C16.4907 7.26669 17.4633 8.23823 17.4633 9.43673C17.4633 10.6352 16.4907 11.6068 15.2909 11.6068C14.0911 11.6068 13.1184 10.6352 13.1184 9.43673C13.1184 8.23823 14.0911 7.26669 15.2909 7.26669Z" fill="url(#paint3_linear_615_421)"/>
</g>
<defs>
<linearGradient id="paint0_linear_615_421" x1="12.13" y1="0.600006" x2="12.13" y2="24.6" gradientUnits="userSpaceOnUse">
<stop stop-color="#2E2E2E"/>
<stop offset="1" stop-color="#020303"/>
</linearGradient>
<linearGradient id="paint1_linear_615_421" x1="12.13" y1="7.26669" x2="12.13" y2="17.9333" gradientUnits="userSpaceOnUse">
<stop stop-color="#46D5CF"/>
<stop offset="1" stop-color="#45D6D0"/>
</linearGradient>
<linearGradient id="paint2_linear_615_421" x1="8.97996" y1="13.5826" x2="8.97996" y2="17.9226" gradientUnits="userSpaceOnUse">
<stop stop-color="#46D5CF"/>
<stop offset="1" stop-color="#45D6D0"/>
</linearGradient>
<linearGradient id="paint3_linear_615_421" x1="15.2909" y1="7.26669" x2="15.2909" y2="11.6068" gradientUnits="userSpaceOnUse">
<stop stop-color="#46D5CF"/>
<stop offset="1" stop-color="#45D6D0"/>
</linearGradient>
<clipPath id="clip0_615_421">
<rect width="24" height="24" fill="white" transform="translate(0.130005 0.600006)"/>
</clipPath>
</defs>
</svg>
